# Blender 3.4.1
# www.blender.org
mtllib untitled.mtl
o Sphere
v 0.000000 0.000008 -50.000000
v 0.000000 50.000000 0.000008
v 13.529900 46.194004 -13.529892
v 25.000000 35.355354 -24.999994
v 32.664047 19.134155 -32.664097
v 35.355350 0.000006 -35.355350
v 32.664047 -19.134193 -32.664104
v 25.000000 -35.355347 -25.000006
v 13.529900 -46.193996 -13.529907
v 19.134150 46.194000 0.000008
v 35.355350 35.355350 0.000006
v 46.193951 19.134150 0.000003
v 50.000000 0.000000 0.000000
v 46.193951 -19.134199 -0.000003
v 35.355350 -35.355350 -0.000006
v 19.134150 -46.194000 -0.000008
v 0.000000 -50.000000 -0.000008
v 13.529900 46.193996 13.529907
v 25.000000 35.355347 25.000006
v 32.664047 19.134144 32.664051
v 35.355350 -0.000006 35.355301
v 32.664047 -19.134205 32.664043
v 25.000000 -35.355354 24.999994
v 13.529900 -46.194004 13.529892
v 0.000000 46.193996 19.134157
v 0.000000 35.355343 35.355309
v 0.000000 19.134142 46.193954
v 0.000000 -0.000008 50.000000
v 0.000000 -19.134207 46.193947
v 0.000000 -35.355358 35.355293
v 0.000000 -46.194004 19.134142
v -13.529900 46.193996 13.529907
v -25.000000 35.355347 25.000006
v -32.664047 19.134144 32.664051
v -35.355350 -0.000006 35.355301
v -32.664047 -19.134205 32.664043
v -25.000000 -35.355354 24.999994
v -13.529900 -46.194004 13.529892
v -19.134150 46.194000 0.000008
v -35.355350 35.355350 0.000006
v -46.193951 19.134150 0.000003
v -50.000000 0.000000 0.000000
v -46.193951 -19.134199 -0.000003
v -35.355350 -35.355350 -0.000006
v -19.134150 -46.194000 -0.000008
v -13.529900 46.194004 -13.529892
v -25.000000 35.355354 -24.999994
v -32.664047 19.134155 -32.664043
v -35.355350 0.000006 -35.355350
v -32.664047 -19.134193 -32.664051
v -25.000000 -35.355347 -25.000006
v -13.529900 -46.193996 -13.529907
v 0.000000 46.194004 -19.134142
v 0.000000 35.355358 -35.355343
v 0.000000 19.134157 -46.193947
v 0.000000 -19.134192 -46.193954
v 0.000000 -35.355343 -35.355358
v 0.000000 -46.193996 -19.134157
vn -0.0000 -1.0000 -0.0000
vn -0.0000 -0.9063 -0.4226
vn 0.2988 -0.9063 -0.2988
vn -0.0000 -0.6839 -0.7296
vn -0.0000 -0.3668 -0.9303
vn 0.6578 -0.3668 -0.6578
vn 0.5159 -0.6839 -0.5159
vn -0.0000 -0.0000 -1.0000
vn -0.0000 0.3668 -0.9303
vn 0.6578 0.3668 -0.6578
vn 0.7071 -0.0000 -0.7071
vn -0.0000 0.6839 -0.7296
vn -0.0000 0.9063 -0.4226
vn 0.2988 0.9063 -0.2988
vn 0.5159 0.6839 -0.5159
vn -0.0000 1.0000 -0.0000
vn 0.7296 -0.6839 -0.0000
vn 0.4226 -0.9063 -0.0000
vn 1.0000 -0.0000 -0.0000
vn 0.9303 -0.3668 -0.0000
vn 0.7296 0.6839 -0.0000
vn 0.9303 0.3668 -0.0000
vn 0.4226 0.9063 -0.0000
vn 0.7071 -0.0000 0.7071
vn 0.6578 -0.3668 0.6578
vn 0.5159 0.6839 0.5159
vn 0.6578 0.3668 0.6578
vn 0.2988 0.9063 0.2988
vn 0.2988 -0.9063 0.2988
vn 0.5159 -0.6839 0.5159
vn -0.0000 -0.9063 0.4226
vn -0.0000 -0.3668 0.9303
vn -0.0000 -0.6839 0.7296
vn -0.0000 0.3668 0.9303
vn -0.0000 -0.0000 1.0000
vn -0.0000 0.9063 0.4226
vn -0.0000 0.6839 0.7296
vn -0.6578 0.3668 0.6578
vn -0.7071 -0.0000 0.7071
vn -0.2988 0.9063 0.2988
vn -0.5159 0.6839 0.5159
vn -0.5159 -0.6839 0.5159
vn -0.2988 -0.9063 0.2988
vn -0.6578 -0.3668 0.6578
vn -0.7296 -0.6839 -0.0000
vn -0.4226 -0.9063 -0.0000
vn -1.0000 -0.0000 -0.0000
vn -0.9303 -0.3668 -0.0000
vn -0.7296 0.6839 -0.0000
vn -0.9303 0.3668 -0.0000
vn -0.4226 0.9063 -0.0000
vn -0.5159 0.6839 -0.5159
vn -0.6578 0.3668 -0.6578
vn -0.2988 0.9063 -0.2988
vn -0.2988 -0.9063 -0.2988
vn -0.6578 -0.3668 -0.6578
vn -0.5159 -0.6839 -0.5159
vn -0.7071 -0.0000 -0.7071
vt 0.750000 0.500000
vt 0.687500 1.000000
vt 0.562500 1.000000
vt 0.437500 1.000000
vt 0.312500 1.000000
vt 0.187500 1.000000
vt 0.062500 1.000000
vt 0.937500 1.000000
vt 0.812500 1.000000
vt 0.625000 0.875000
vt 0.625000 0.750000
vt 0.625000 0.625000
vt 0.625000 0.500000
vt 0.625000 0.375000
vt 0.625000 0.250000
vt 0.625000 0.125000
vt 0.500000 0.875000
vt 0.500000 0.750000
vt 0.500000 0.625000
vt 0.500000 0.500000
vt 0.500000 0.375000
vt 0.500000 0.250000
vt 0.500000 0.125000
vt 0.687500 0.000000
vt 0.562500 0.000000
vt 0.437500 0.000000
vt 0.312500 0.000000
vt 0.187500 0.000000
vt 0.062500 0.000000
vt 0.937500 0.000000
vt 0.812500 0.000000
vt 0.375000 0.875000
vt 0.375000 0.750000
vt 0.375000 0.625000
vt 0.375000 0.500000
vt 0.375000 0.375000
vt 0.375000 0.250000
vt 0.375000 0.125000
vt 0.250000 0.875000
vt 0.250000 0.750000
vt 0.250000 0.625000
vt 0.250000 0.500000
vt 0.250000 0.375000
vt 0.250000 0.250000
vt 0.250000 0.125000
vt 0.125000 0.875000
vt 0.125000 0.750000
vt 0.125000 0.625000
vt 0.125000 0.500000
vt 0.125000 0.375000
vt 0.125000 0.250000
vt 0.125000 0.125000
vt 0.000000 0.875000
vt 1.000000 0.875000
vt 0.000000 0.750000
vt 1.000000 0.750000
vt 0.000000 0.625000
vt 1.000000 0.625000
vt 0.000000 0.500000
vt 1.000000 0.500000
vt 0.000000 0.375000
vt 1.000000 0.375000
vt 0.000000 0.250000
vt 1.000000 0.250000
vt 0.000000 0.125000
vt 1.000000 0.125000
vt 0.875000 0.875000
vt 0.875000 0.750000
vt 0.875000 0.625000
vt 0.875000 0.500000
vt 0.875000 0.375000
vt 0.875000 0.250000
vt 0.875000 0.125000
vt 0.750000 0.875000
vt 0.750000 0.750000
vt 0.750000 0.625000
vt 0.750000 0.375000
vt 0.750000 0.250000
vt 0.750000 0.125000
s 1
usemtl None
f 17/24/1 58/79/2 9/16/3
f 57/78/4 56/77/5 7/14/6 8/15/7
f 1/1/8 55/76/9 5/12/10 6/13/11
f 54/75/12 53/74/13 3/10/14 4/11/15
f 58/79/2 57/78/4 8/15/7 9/16/3
f 56/77/5 1/1/8 6/13/11 7/14/6
f 55/76/9 54/75/12 4/11/15 5/12/10
f 53/74/13 2/2/16 3/10/14
f 9/16/3 8/15/7 15/22/17 16/23/18
f 7/14/6 6/13/11 13/20/19 14/21/20
f 5/12/10 4/11/15 11/18/21 12/19/22
f 3/10/14 2/3/16 10/17/23
f 17/25/1 9/16/3 16/23/18
f 8/15/7 7/14/6 14/21/20 15/22/17
f 6/13/11 5/12/10 12/19/22 13/20/19
f 4/11/15 3/10/14 10/17/23 11/18/21
f 14/21/20 13/20/19 21/35/24 22/36/25
f 12/19/22 11/18/21 19/33/26 20/34/27
f 10/17/23 2/4/16 18/32/28
f 17/26/1 16/23/18 24/38/29
f 15/22/17 14/21/20 22/36/25 23/37/30
f 13/20/19 12/19/22 20/34/27 21/35/24
f 11/18/21 10/17/23 18/32/28 19/33/26
f 16/23/18 15/22/17 23/37/30 24/38/29
f 17/27/1 24/38/29 31/45/31
f 23/37/30 22/36/25 29/43/32 30/44/33
f 21/35/24 20/34/27 27/41/34 28/42/35
f 19/33/26 18/32/28 25/39/36 26/40/37
f 24/38/29 23/37/30 30/44/33 31/45/31
f 22/36/25 21/35/24 28/42/35 29/43/32
f 20/34/27 19/33/26 26/40/37 27/41/34
f 18/32/28 2/5/16 25/39/36
f 28/42/35 27/41/34 34/48/38 35/49/39
f 26/40/37 25/39/36 32/46/40 33/47/41
f 31/45/31 30/44/33 37/51/42 38/52/43
f 29/43/32 28/42/35 35/49/39 36/50/44
f 27/41/34 26/40/37 33/47/41 34/48/38
f 25/39/36 2/6/16 32/46/40
f 17/28/1 31/45/31 38/52/43
f 30/44/33 29/43/32 36/50/44 37/51/42
f 38/52/43 37/51/42 44/63/45 45/65/46
f 36/50/44 35/49/39 42/59/47 43/61/48
f 34/48/38 33/47/41 40/55/49 41/57/50
f 32/46/40 2/7/16 39/53/51
f 17/29/1 38/52/43 45/65/46
f 37/51/42 36/50/44 43/61/48 44/63/45
f 35/49/39 34/48/38 41/57/50 42/59/47
f 33/47/41 32/46/40 39/53/51 40/55/49
f 41/58/50 40/56/49 47/68/52 48/69/53
f 39/54/51 2/8/16 46/67/54
f 17/30/1 45/66/46 52/73/55
f 44/64/45 43/62/48 50/71/56 51/72/57
f 42/60/47 41/58/50 48/69/53 49/70/58
f 40/56/49 39/54/51 46/67/54 47/68/52
f 45/66/46 44/64/45 51/72/57 52/73/55
f 43/62/48 42/60/47 49/70/58 50/71/56
f 17/31/1 52/73/55 58/79/2
f 51/72/57 50/71/56 56/77/5 57/78/4
f 49/70/58 48/69/53 55/76/9 1/1/8
f 47/68/52 46/67/54 53/74/13 54/75/12
f 52/73/55 51/72/57 57/78/4 58/79/2
f 50/71/56 49/70/58 1/1/8 56/77/5
f 48/69/53 47/68/52 54/75/12 55/76/9
f 46/67/54 2/9/16 53/74/13
